<?xml version="1.0" standalone="no"?><!DOCTYPE svg PUBLIC "-//W3C//DTD SVG 1.1//EN" "http://www.w3.org/Graphics/SVG/1.1/DTD/svg11.dtd"><svg t="1594862019015" class="icon" viewBox="0 0 1024 1024" version="1.1" xmlns="http://www.w3.org/2000/svg" p-id="2726" xmlns:xlink="http://www.w3.org/1999/xlink" width="100" height="100"><defs><style type="text/css"></style></defs><path d="M731.544121 428.725273c-9.96037 10.022402-20.055751 19.923173-30.090316 29.884759-68.92834 68.405326-137.832353 136.859305-206.857998 205.167326-8.84258 8.745276-16.444524 19.279744-29.264441 23.049092h-10.946798c-8.574992-2.238012-14.753851-7.906021-20.859732-13.975412-44.821057-44.614285-89.715093-89.131264-134.682108-133.587429-6.227512-6.154533-12.065804-12.392992-14.157859-21.224625v-9.122332c2.067729-8.84258 7.94251-15.070092 14.206511-21.16381 10.788678-10.472437 21.32193-21.212462 32.061956-31.733552 2.371806-2.323154 4.938222-4.585492 7.78439-6.251838 11.93201-6.957298 25.274941-4.719286 36.063619 5.98425 20.178598 20.008315 40.308544 40.053119 60.389837 60.157521 8.027652 8.039815 15.860694 16.262077 23.888346 24.508665 1.520389-1.410921 2.420459-2.213686 3.271877-3.05294 13.695661-13.598356 27.379159-27.196712 41.074819-40.795068 46.342662-46.049531 92.682892-92.099063 139.048665-138.124268 7.492475-7.443823 14.364632-15.775553 25.396572-18.317643h9.122332c6.349143 1.824466 12.12662 4.53684 16.894558 9.341268 12.529219 12.625307 25.251831 25.043842 37.779834 37.656986 12.501244 12.590034 12.440428 28.973742-0.124064 41.59905z" p-id="2727" fill="#ffffff"></path></svg>